name D:\school\WTK\thesis\model\3dpredictsim\Results\debug_batch\Pog_s1_tmt_bCst_d00_k1000_ig24.mot
datacolumns 128
datarows 4
range 0.53978779 0.57217505
endheader
time	pelvis_tilt	pelvis_list	pelvis_rotation	pelvis_tx	pelvis_ty	pelvis_tz	hip_flexion_l	hip_adduction_l	hip_rotation_l	hip_flexion_r	hip_adduction_r	hip_rotation_r	knee_angle_l	knee_angle_r	ankle_angle_l	ankle_angle_r	subtalar_angle_l	subtalar_angle_r	tmt_angle_l	tmt_angle_r	mtp_angle_l	mtp_angle_r	lumbar_extension	lumbar_bending	lumbar_rotation	arm_flex_l	arm_add_l	arm_rot_l	arm_flex_r	arm_add_r	arm_rot_r	elbow_flex_l	elbow_flex_r	pro_sup_l	pro_sup_r	glut_med1_l/activation	glut_med2_l/activation	glut_med3_l/activation	glut_min1_l/activation	glut_min2_l/activation	glut_min3_l/activation	semimem_l/activation	semiten_l/activation	bifemlh_l/activation	bifemsh_l/activation	sar_l/activation	add_long_l/activation	add_brev_l/activation	add_mag1_l/activation	add_mag2_l/activation	add_mag3_l/activation	tfl_l/activation	pect_l/activation	grac_l/activation	glut_max1_l/activation	glut_max2_l/activation	glut_max3_l/activation	iliacus_l/activation	psoas_l/activation	quad_fem_l/activation	gem_l/activation	peri_l/activation	rect_fem_l/activation	vas_med_l/activation	vas_int_l/activation	vas_lat_l/activation	med_gas_l/activation	lat_gas_l/activation	soleus_l/activation	tib_post_l/activation	flex_dig_l/activation	flex_hal_l/activation	tib_ant_l/activation	per_brev_l/activation	per_long_l/activation	per_tert_l/activation	ext_dig_l/activation	ext_hal_l/activation	ercspn_l/activation	intobl_l/activation	extobl_l/activation	glut_med1_r/activation	glut_med2_r/activation	glut_med3_r/activation	glut_min1_r/activation	glut_min2_r/activation	glut_min3_r/activation	semimem_r/activation	semiten_r/activation	bifemlh_r/activation	bifemsh_r/activation	sar_r/activation	add_long_r/activation	add_brev_r/activation	add_mag1_r/activation	add_mag2_r/activation	add_mag3_r/activation	tfl_r/activation	pect_r/activation	grac_r/activation	glut_max1_r/activation	glut_max2_r/activation	glut_max3_r/activation	iliacus_r/activation	psoas_r/activation	quad_fem_r/activation	gem_r/activation	peri_r/activation	rect_fem_r/activation	vas_med_r/activation	vas_int_r/activation	vas_lat_r/activation	med_gas_r/activation	lat_gas_r/activation	soleus_r/activation	tib_post_r/activation	flex_dig_r/activation	flex_hal_r/activation	tib_ant_r/activation	per_brev_r/activation	per_long_r/activation	per_tert_r/activation	ext_dig_r/activation	ext_hal_r/activation	ercspn_r/activation	intobl_r/activation	extobl_r/activation	
          0.53978779	         -2.92989304	          2.25148478	         -5.33871863	          0.67473473	          0.85815110	          0.00236133	         31.67647122	          3.13886279	         -1.73616382	        -17.95145689	         -1.64955278	          7.21423771	        -14.36093048	         -6.40516319	          7.26110992	          1.11496888	         -3.40532693	          9.51897022	          0.03520197	          1.85004339	         -0.12540836	         20.80822153	         -1.96739300	         -0.57320157	          1.97720094	         -8.73097926	        -13.52523061	          6.70757613	          7.76720291	        -13.45144149	         16.94626736	         14.32296371	         35.23802180	         86.51662706	         86.51662706	          0.09393336	          0.05000018	          0.05899618	          0.05000014	          0.05000019	          0.05000070	          0.05899658	          0.05899677	          0.21544433	          0.05000060	          0.05000276	          0.11349725	          0.16740610	          0.20389962	          0.15526272	          0.10225873	          0.05899656	          0.05005636	          0.06316285	          0.05900182	          0.06961128	          0.10531725	          0.05000016	          0.05000021	          0.23626785	          0.05209242	          0.05000052	          0.05000032	          0.08750282	          0.09121617	          0.07781762	          0.05899620	          0.05001709	          0.05899642	          0.05000008	          0.05000142	          0.05000461	          0.48459280	          0.37778889	          0.21891988	          0.26948539	          0.53535740	          0.26526071	          0.07359408	          0.11347748	          0.11465144	          0.33108159	          0.11435080	          0.08213542	          0.33278410	          0.22110386	          0.11435392	          0.05000104	          0.05000020	          0.05000015	          0.07683817	          0.11435353	          0.05000018	          0.05000015	          0.05000019	          0.05000049	          0.05000035	          0.32888686	          0.05000077	          0.05000051	          0.05001036	          0.05000374	          0.05000114	          0.39811346	          0.63571803	          0.05000029	          0.05000095	          0.05346629	          0.21370463	          0.05000356	          0.05000132	          0.05000144	          0.33157182	          0.44657287	          0.32166820	          0.27122654	          0.27967496	          0.38005975	          0.05000006	          0.05917316	          0.15349642	          0.05000033	          0.05000010	          0.05000032	          0.05000002	          0.05000001	          0.05000003	
          0.55058354	         -2.92590963	          2.34213887	         -5.63731290	          0.69081075	          0.85710876	          0.00216605	         31.08776674	          3.49566861	         -1.52950042	        -17.84102121	         -1.94884179	          6.98513236	        -14.25469188	         -8.29256266	          6.68182750	          0.43380005	         -3.88278183	         10.48796669	          0.04176013	          1.63406699	         -0.10517492	         21.93507641	         -1.77816402	         -0.78750036	          2.05176725	         -9.75451363	        -13.51579208	          6.61461327	          7.65649494	        -13.45788499	         17.20295124	         14.13745412	         36.34629371	         86.51662706	         86.51662706	          0.07960945	          0.05806085	          0.05000016	          0.05899690	          0.05899631	          0.05000077	          0.05000016	          0.05000047	          0.18306179	          0.05000053	          0.05000140	          0.09619322	          0.14187857	          0.24011563	          0.17632970	          0.09217090	          0.05000038	          0.05000357	          0.05353155	          0.05000625	          0.05899636	          0.11445260	          0.05139631	          0.05880424	          0.52706866	          0.13497449	          0.07699489	          0.06961186	          0.18058730	          0.18547972	          0.15953859	          0.05000000	          0.05000002	          0.05000000	          0.05000022	          0.05899679	          0.05000497	          0.53788515	          0.33518966	          0.22863761	          0.42859311	          0.57124690	          0.24233564	          0.06237162	          0.09617313	          0.09716807	          0.28059455	          0.09691330	          0.06961052	          0.28203748	          0.18738746	          0.09691597	          0.05000702	          0.05000082	          0.05000112	          0.06512104	          0.09691580	          0.11688888	          0.06064265	          0.05899534	          0.05001960	          0.06960973	          0.27873456	          0.05751356	          0.05000362	          0.05000291	          0.05000219	          0.05000238	          0.33740460	          0.56643905	          0.05000055	          0.05002232	          0.05899656	          0.18111656	          0.05000258	          0.18138789	          0.15090506	          0.28100992	          0.37847434	          0.27808111	          0.24659557	          0.23702968	          0.32210589	          0.05000003	          0.05015028	          0.15659342	          0.05000017	          0.05000005	          0.05000017	          0.05000003	          0.06961167	          0.05000004	
          0.56137930	         -2.91782587	          2.42964666	         -5.91141291	          0.70719745	          0.85609116	          0.00198056	         30.37329538	          3.79851242	         -1.25943674	        -17.65908006	         -2.24109184	          6.74521142	        -14.66725531	        -10.30456276	          6.04669776	         -0.40702362	         -4.37981754	         11.41569407	         -0.03288863	          1.38923877	         -0.14981538	         22.94129415	         -1.56553290	         -1.00572686	          2.11648358	        -10.80234048	        -13.50817635	          6.54853779	          7.45913852	        -13.46299086	         17.39209961	         14.01345097	         37.41542003	         86.51662706	         86.51662706	          0.26599031	          0.05000008	          0.28512377	          0.05000049	          0.05000020	          0.22053288	          0.07479381	          0.05000060	          0.16436236	          0.05000017	          0.05000082	          0.08215448	          0.22961968	          0.20350057	          0.14944351	          0.12858366	          0.05000059	          0.05900660	          0.12350731	          0.05000015	          0.05000017	          0.10121655	          0.05899633	          0.05263839	          0.44669519	          0.11439213	          0.15557842	          0.05899666	          0.15304934	          0.15719573	          0.13521037	          0.06049002	          0.05910976	          0.05899667	          0.05899648	          0.05000050	          0.05000075	          0.45586222	          0.34707984	          0.19377244	          0.36323649	          0.57943695	          0.20538155	          0.05286050	          0.10536231	          0.08235077	          0.35668466	          0.08213487	          0.05899557	          0.23902938	          0.15881253	          0.08213715	          0.05000255	          0.05000102	          0.05000103	          0.05519069	          0.08213726	          0.14218628	          0.11147507	          0.05899845	          0.05899719	          0.05899671	          0.23623037	          0.08764558	          0.05407567	          0.05001502	          0.05002055	          0.05899451	          0.28595343	          0.54050565	          0.05899572	          0.05000169	          0.05000022	          0.15349785	          0.10276069	          0.15372839	          0.12789388	          0.23815829	          0.32076021	          0.23567610	          0.20899193	          0.20088494	          0.27298767	          0.05000002	          0.05000038	          0.17655059	          0.05000012	          0.05000003	          0.05000016	          0.05478924	          0.05899649	          0.05131733	
          0.57217505	         -2.90733345	          2.51647669	         -6.15322958	          0.72373590	          0.85510305	          0.00178543	         29.53584420	          4.06418362	         -0.97970592	        -17.38381996	         -2.52450373	          6.50108206	        -15.10881186	        -12.46119400	          5.57353522	         -1.40425974	         -4.87140687	         12.28411847	         -0.02156835	          1.14333200	         -0.15726783	         23.76050135	         -1.34576786	         -1.22971311	          2.17201592	        -11.83238149	        -13.50375058	          6.52701862	          7.19641633	        -13.47085830	         17.52464378	         13.92384461	         38.43788772	         86.51662706	         86.51662706	          0.31919476	          0.28704584	          0.36184599	          0.17884339	          0.21165391	          0.18690424	          0.06338848	          0.08815858	          0.13929853	          0.08213672	          0.05001289	          0.06962666	          0.19460465	          0.17246860	          0.12665492	          0.14511919	          0.05000050	          0.05000896	          0.10467388	          0.21966176	          0.16707619	          0.12493114	          0.05000010	          0.05000011	          0.37857803	          0.09694858	          0.13185432	          0.05000021	          0.12971083	          0.13830363	          0.11459227	          0.05126582	          0.05009606	          0.05000019	          0.05000004	          0.05899656	          0.05652535	          0.58258190	          0.42968928	          0.22152564	          0.62972746	          0.63401610	          0.32740540	          0.07616710	          0.09174685	          0.06979298	          0.30860073	          0.06961003	          0.05000012	          0.35232974	          0.13459506	          0.06961199	          0.05000332	          0.05000019	          0.05000017	          0.05000026	          0.06961333	          0.12798252	          0.09447622	          0.05000192	          0.05000135	          0.05000065	          0.25614954	          0.07428274	          0.05000061	          0.05000165	          0.05000099	          0.05000062	          0.24234821	          0.50630798	          0.05000013	          0.05000080	          0.05000049	          0.13492915	          0.08709128	          0.13028810	          0.13492897	          0.20184116	          0.27184700	          0.19973748	          0.17712248	          0.17025185	          0.23135947	          0.05000008	          0.08760196	          0.18016106	          0.05000028	          0.07603888	          0.05000034	          0.07383766	          0.05000003	          0.05000003	
